<svg width="28" height="29" viewBox="0 0 28 29" fill="none" xmlns="http://www.w3.org/2000/svg">
<path d="M3.69839 9.17383L14 15.1355L24.2317 9.20879" stroke="currentColor" stroke-width="2" stroke-linecap="round" stroke-linejoin="round"/>
<path d="M14.0001 25.7067V15.125" stroke="currentColor" stroke-width="2" stroke-linecap="round" stroke-linejoin="round"/>
<path d="M11.585 3.38812L5.35504 6.85316C3.94337 7.63483 2.78839 9.59481 2.78839 11.2048V17.7965C2.78839 19.4065 3.94337 21.3665 5.35504 22.1481L11.585 25.6132C12.915 26.3482 15.0967 26.3482 16.4267 25.6132L22.6567 22.1481C24.0684 21.3665 25.2234 19.4065 25.2234 17.7965V11.2048C25.2234 9.59481 24.0684 7.63483 22.6567 6.85316L16.4267 3.38812C15.085 2.64146 12.915 2.64146 11.585 3.38812Z" stroke="currentColor" stroke-width="2" stroke-linecap="round" stroke-linejoin="round"/>
<path d="M19.8333 15.9426V11.6727L8.76166 5.2793" stroke="currentColor" stroke-width="1.5" stroke-linecap="round" stroke-linejoin="round"/>
</svg>
