<svg width="17" height="15" viewBox="0 0 17 15" fill="none" xmlns="http://www.w3.org/2000/svg">
<path d="M1 6.5C0.447715 6.5 0 6.94772 0 7.5C0 8.05228 0.447715 8.5 1 8.5V6.5ZM16 8.5C16.5523 8.5 17 8.05228 17 7.5C17 6.94772 16.5523 6.5 16 6.5V8.5ZM1 12.75C0.447715 12.75 0 13.1977 0 13.75C0 14.3023 0.447715 14.75 1 14.75V12.75ZM16 14.75C16.5523 14.75 17 14.3023 17 13.75C17 13.1977 16.5523 12.75 16 12.75V14.75ZM1 0.25C0.447715 0.25 0 0.697715 0 1.25C0 1.80228 0.447715 2.25 1 2.25V0.25ZM16 2.25C16.5523 2.25 17 1.80228 17 1.25C17 0.697715 16.5523 0.25 16 0.25V2.25ZM1 8.5H16V6.5H1V8.5ZM1 14.75H16V12.75H1V14.75ZM1 2.25H16V0.25H1V2.25Z" fill="currentColor"/>
</svg>
