<svg width="22" height="22" viewBox="0 0 22 22" fill="none" xmlns="http://www.w3.org/2000/svg">
<path fill-rule="evenodd" clip-rule="evenodd" d="M17.4163 15.5833H3.66634V11H18.333V15.5833H17.4163ZM7.33301 13.2917C7.33301 14.0511 6.7174 14.6667 5.95801 14.6667C5.19862 14.6667 4.58301 14.0511 4.58301 13.2917C4.58301 12.5323 5.19862 11.9167 5.95801 11.9167C6.7174 11.9167 7.33301 12.5323 7.33301 13.2917ZM16.0413 14.6667C16.8007 14.6667 17.4163 14.0511 17.4163 13.2917C17.4163 12.5323 16.8007 11.9167 16.0413 11.9167C15.2819 11.9167 14.6663 12.5323 14.6663 13.2917C14.6663 14.0511 15.2819 14.6667 16.0413 14.6667Z" fill="black"/>
<path fill-rule="evenodd" clip-rule="evenodd" d="M4.42642 3.76344C4.73697 3.14234 5.37179 2.75 6.06621 2.75H15.9331C16.6276 2.75 17.2624 3.14234 17.5729 3.76344L19.9728 8.56317C20.1001 8.81774 20.1663 9.09845 20.1663 9.38306V10.0833V16.5V17.4167C20.1663 18.4292 19.3455 19.25 18.333 19.25C17.3205 19.25 16.4997 18.4292 16.4997 17.4167H4.58301V17.875C4.58301 18.6344 3.9674 19.25 3.20801 19.25C2.44862 19.25 1.83301 18.6344 1.83301 17.875V16.5V10.0833V9.38306C1.83301 9.09845 1.89927 8.81774 2.02656 8.56317L4.42642 3.76344ZM3.66634 15.5833H17.4163H18.333V11H3.66634V15.5833ZM3.77454 9.16667H18.2248L15.9331 4.58333L6.06621 4.58333L3.77454 9.16667Z" fill="black"/>
</svg>