<svg width="22" height="22" viewBox="0 0 22 22" fill="none" xmlns="http://www.w3.org/2000/svg">
<path d="M17.8747 11.4577C17.8747 10.1927 18.9013 9.16602 20.1663 9.16602V8.24935C20.1663 4.58268 19.2497 3.66602 15.583 3.66602H6.41634C2.74967 3.66602 1.83301 4.58268 1.83301 8.24935V8.70768C3.09801 8.70768 4.12467 9.73435 4.12467 10.9993C4.12467 12.2643 3.09801 13.291 1.83301 13.291V13.7493C1.83301 17.416 2.74967 18.3327 6.41634 18.3327H15.583C19.2497 18.3327 20.1663 17.416 20.1663 13.7493C18.9013 13.7493 17.8747 12.7227 17.8747 11.4577Z" fill="#FF351F"/>
<path d="M8.25 13.5215L13.75 8.02148" stroke="white" stroke-width="1.5" stroke-linecap="round" stroke-linejoin="round"/>
<path d="M13.7453 13.5208H13.7535" stroke="white" stroke-width="2" stroke-linecap="round" stroke-linejoin="round"/>
<path d="M8.24529 8.47982H8.25352" stroke="white" stroke-width="2" stroke-linecap="round" stroke-linejoin="round"/>
</svg>
