<svg width="161" height="166" viewBox="0 0 161 166" fill="none" xmlns="http://www.w3.org/2000/svg">
<path d="M86.4715 15.5527L130.042 39.709C135.128 42.5307 135.128 50.5828 130.042 53.4044L86.4715 77.5607C82.5896 79.6942 78.0385 79.6942 74.1567 77.5607L30.5864 53.4044C25.4998 50.5828 25.4998 42.5307 30.5864 39.709L74.1567 15.5527C78.0385 13.4193 82.5896 13.4193 86.4715 15.5527Z" stroke="currentColor" stroke-width="2" stroke-linecap="round" stroke-linejoin="round"/>
<path opacity="0.4" d="M24.1607 69.7174L64.6523 90.5702C69.6719 93.1854 72.8844 98.4847 72.8844 104.266V143.631C72.8844 149.344 67.0617 152.991 62.109 150.445L21.6174 129.592C16.5978 126.977 13.3853 121.677 13.3853 115.896V76.5307C13.3853 70.8185 19.208 67.171 24.1607 69.7174Z" stroke="currentColor" stroke-width="2" stroke-linecap="round" stroke-linejoin="round"/>
<path opacity="0.4" d="M136.467 69.7174L95.9758 90.5702C90.9562 93.1854 87.7437 98.4847 87.7437 104.266V143.631C87.7437 149.344 93.5664 152.991 98.5191 150.445L139.011 129.592C144.03 126.977 147.243 121.677 147.243 115.896V76.5307C147.243 70.8185 141.42 67.171 136.467 69.7174Z" stroke="currentColor" stroke-width="2" stroke-linecap="round" stroke-linejoin="round"/>
</svg>
