<svg width="18" height="18" viewBox="0 0 18 18" fill="none" xmlns="http://www.w3.org/2000/svg">
<path d="M9.00098 16.498C13.1431 16.498 16.501 13.1402 16.501 8.99805C16.501 4.85591 13.1431 1.49805 9.00098 1.49805C4.85884 1.49805 1.50098 4.85591 1.50098 8.99805C1.50098 13.1402 4.85884 16.498 9.00098 16.498Z" stroke="#4D4D4D" stroke-width="1.5" stroke-linecap="round" stroke-linejoin="round"/>
<path d="M6.0002 2.25H6.7502C5.2877 6.63 5.2877 11.37 6.7502 15.75H6.0002" stroke="#4D4D4D" stroke-width="1.5" stroke-linecap="round" stroke-linejoin="round"/>
<path d="M11.25 2.25C12.7125 6.63 12.7125 11.37 11.25 15.75" stroke="#4D4D4D" stroke-width="1.5" stroke-linecap="round" stroke-linejoin="round"/>
<path d="M2.25 12V11.25C6.63 12.7125 11.37 12.7125 15.75 11.25V12" stroke="#4D4D4D" stroke-width="1.5" stroke-linecap="round" stroke-linejoin="round"/>
<path d="M2.25 6.75068C6.63 5.28818 11.37 5.28818 15.75 6.75068" stroke="#4D4D4D" stroke-width="1.5" stroke-linecap="round" stroke-linejoin="round"/>
</svg>
