<svg width="13" height="19" viewBox="0 0 13 19" fill="none" xmlns="http://www.w3.org/2000/svg">
<path d="M6.50002 0.75C6.0858 0.749991 5.75001 1.08577 5.75 1.49998C5.74999 1.9142 6.08577 2.24999 6.49998 2.25L6.50002 0.75ZM8.6043 1.92971L8.89779 1.23952L8.89754 1.23942L8.6043 1.92971ZM11.0727 4.01429L10.444 4.42319L10.4444 4.42387L11.0727 4.01429ZM12 7.14571L12.75 7.14571L12.75 7.14455L12 7.14571ZM10.3885 11.1377L9.7752 10.706C9.76644 10.7185 9.75806 10.7312 9.75007 10.7441L10.3885 11.1377ZM8.7913 13.7286L8.15285 13.335L8.15032 13.3392L8.7913 13.7286ZM6.5 17.5L5.85939 17.89C5.99556 18.1137 6.23851 18.2501 6.50035 18.25C6.7622 18.2499 7.00502 18.1132 7.14098 17.8894L6.5 17.5ZM4.2087 13.7366L4.84932 13.3465L4.84744 13.3435L4.2087 13.7366ZM2.6115 11.1411L3.25024 10.7481C3.24229 10.7351 3.23394 10.7225 3.22522 10.71L2.6115 11.1411ZM1 7.14914L0.25 7.14843V7.14914H1ZM1.9273 4.01429L2.55558 4.42387L2.55562 4.42382L1.9273 4.01429ZM4.3957 1.93314L4.68876 2.62352L4.69005 2.62297L4.3957 1.93314ZM6.50115 2.25C6.91536 2.24937 7.25063 1.91307 7.25 1.49885C7.24937 1.08464 6.91307 0.749367 6.49885 0.750001L6.50115 2.25ZM6.5 8.75014C6.08579 8.75014 5.75 9.08593 5.75 9.50014C5.75 9.91435 6.08579 10.2501 6.5 10.2501V8.75014ZM6.5 4.17871C6.08579 4.17871 5.75 4.5145 5.75 4.92871C5.75 5.34292 6.08579 5.67871 6.5 5.67871L6.5 4.17871ZM6.51954 10.2492C6.93361 10.2383 7.26047 9.89384 7.24961 9.47977C7.23874 9.0657 6.89427 8.73884 6.48019 8.7497L6.51954 10.2492ZM4.5964 8.3735L5.25282 8.01072L5.25282 8.01072L4.5964 8.3735ZM4.5964 6.05535L3.93998 5.69256L3.93998 5.69256L4.5964 6.05535ZM6.48019 5.67915C6.89427 5.69001 7.23874 5.36315 7.24961 4.94908C7.26047 4.53501 6.93361 4.19053 6.51954 4.17967L6.48019 5.67915ZM6.49998 2.25C7.12026 2.25001 7.73531 2.37543 8.31106 2.62001L8.89754 1.23942C8.13739 0.916505 7.32299 0.750018 6.50002 0.75L6.49998 2.25ZM8.31081 2.61991C9.17338 2.98669 9.91677 3.61258 10.444 4.42319L11.7014 3.60538C11.0153 2.55038 10.0409 1.7256 8.89779 1.23952L8.31081 2.61991ZM10.4444 4.42387C10.9669 5.22528 11.2485 6.1736 11.25 7.14687L12.75 7.14455C12.7481 5.88481 12.3838 4.65214 11.701 3.6047L10.4444 4.42387ZM11.25 7.14571C11.25 7.80491 11.1514 8.29178 10.9368 8.79452C10.712 9.32115 10.3507 9.8884 9.7752 10.706L11.0018 11.5694C11.5791 10.7493 12.0236 10.0691 12.3163 9.38348C12.6192 8.67394 12.75 7.98366 12.75 7.14571H11.25ZM9.75007 10.7441L8.15287 13.335L9.42973 14.1222L11.0269 11.5313L9.75007 10.7441ZM8.15032 13.3392L5.85902 17.1106L7.14098 17.8894L9.43228 14.118L8.15032 13.3392ZM7.14061 17.11L4.84931 13.3465L3.56809 14.1266L5.85939 17.89L7.14061 17.11ZM4.84744 13.3435L3.25024 10.7481L1.97276 11.5342L3.56996 14.1296L4.84744 13.3435ZM3.22522 10.71C2.64937 9.89025 2.28806 9.32295 2.06315 8.79649C1.84855 8.29419 1.75 7.80824 1.75 7.14914H0.25C0.25 7.98719 0.380797 8.67666 0.683755 9.3858C0.976389 10.0708 1.42083 10.7509 1.99778 11.5722L3.22522 10.71ZM1.75 7.14986C1.75093 6.17556 2.03258 5.22612 2.55558 4.42387L1.29902 3.6047C0.615457 4.65324 0.251206 5.88736 0.25 7.14843L1.75 7.14986ZM2.55562 4.42382C3.08323 3.61432 3.82657 2.98951 4.68876 2.62352L4.10264 1.24277C2.96002 1.7278 1.98569 2.55118 1.29898 3.60476L2.55562 4.42382ZM4.69005 2.62297C5.26562 2.37737 5.88068 2.25095 6.50115 2.25L6.49885 0.750001C5.67563 0.75126 4.86123 0.919076 4.10135 1.24332L4.69005 2.62297ZM6.5 10.2501C7.56813 10.2501 8.54038 9.65815 9.06083 8.72159L7.74968 7.99298C7.48414 8.47082 7.00384 8.75014 6.5 8.75014V10.2501ZM9.06083 8.72159C9.57972 7.78783 9.57972 6.64102 9.06083 5.70726L7.74968 6.43587C8.01677 6.91652 8.01677 7.51233 7.74968 7.99298L9.06083 8.72159ZM9.06083 5.70726C8.54038 4.7707 7.56813 4.17871 6.5 4.17871L6.5 5.67871C7.00384 5.67871 7.48414 5.95803 7.74968 6.43587L9.06083 5.70726ZM6.48019 8.7497C5.99722 8.76237 5.52096 8.49587 5.25282 8.01072L3.93998 8.73629C4.46261 9.68193 5.44358 10.2774 6.51954 10.2492L6.48019 8.7497ZM5.25282 8.01072C4.98221 7.52108 4.98221 6.90777 5.25282 6.41814L3.93998 5.69256C3.41983 6.63373 3.41983 7.79512 3.93998 8.73629L5.25282 8.01072ZM5.25282 6.41814C5.52096 5.93298 5.99722 5.66648 6.48019 5.67915L6.51954 4.17967C5.44358 4.15144 4.46261 4.74692 3.93998 5.69256L5.25282 6.41814Z" fill="#4D4D4D"/>
</svg>
