<svg width="24" height="24" viewBox="0 0 24 24" fill="none" xmlns="http://www.w3.org/2000/svg">
<path d="M12.0196 3.45947C8.7096 3.45947 6.0196 5.86482 6.0196 8.82455V11.4087C6.0196 11.9542 5.7596 12.7858 5.4496 13.2507L4.2996 14.9586C3.5896 16.0138 4.0796 17.1851 5.3796 17.5786C9.6896 18.8662 14.3396 18.8662 18.6496 17.5786C19.8596 17.2209 20.3896 15.9422 19.7296 14.9586L18.5796 13.2507C18.2796 12.7858 18.0196 11.9542 18.0196 11.4087V8.82455C18.0196 5.87376 15.3196 3.45947 12.0196 3.45947Z" stroke="#4A4A4A" stroke-width="2" stroke-miterlimit="10" stroke-linecap="round"/>
<path d="M13.8699 2.82393C13.5599 2.74346 13.2399 2.68086 12.9099 2.6451C11.9499 2.53779 11.0299 2.60039 10.1699 2.82393C10.4599 2.16224 11.1799 1.69727 12.0199 1.69727C12.8599 1.69727 13.5799 2.16224 13.8699 2.82393Z" stroke="#4A4A4A" stroke-width="2" stroke-miterlimit="10" stroke-linecap="round" stroke-linejoin="round"/>
<path d="M14.5716 20.0181C14.5716 21.2827 13.4144 22.3174 12.0001 22.3174C11.2973 22.3174 10.6459 22.0568 10.183 21.6429C9.72014 21.229 9.42871 20.6465 9.42871 20.0181" stroke="#4A4A4A" stroke-width="2" stroke-miterlimit="10" stroke-linecap="round"/>
</svg>
