<svg width="18" height="18" viewBox="0 0 18 18" fill="none" xmlns="http://www.w3.org/2000/svg">
<path d="M9.75764 2.18975L14.1826 4.15475C15.4576 4.71725 15.4576 5.64725 14.1826 6.20975L9.75764 8.17475C9.25514 8.39975 8.43014 8.39975 7.92764 8.17475L3.50264 6.20975C2.22764 5.64725 2.22764 4.71725 3.50264 4.15475L7.92764 2.18975C8.43014 1.96475 9.25514 1.96475 9.75764 2.18975Z" stroke="#4D4D4D" stroke-width="1.5" stroke-linecap="round" stroke-linejoin="round"/>
<path d="M2.25 8.24951C2.25 8.87951 2.7225 9.60701 3.3 9.86201L8.3925 12.127C8.7825 12.2995 9.225 12.2995 9.6075 12.127L14.7 9.86201C15.2775 9.60701 15.75 8.87951 15.75 8.24951" stroke="#4D4D4D" stroke-width="1.5" stroke-linecap="round" stroke-linejoin="round"/>
<path d="M2.25 12.0005C2.25 12.698 2.6625 13.328 3.3 13.613L8.3925 15.878C8.7825 16.0505 9.225 16.0505 9.6075 15.878L14.7 13.613C15.3375 13.328 15.75 12.698 15.75 12.0005" stroke="#4D4D4D" stroke-width="1.5" stroke-linecap="round" stroke-linejoin="round"/>
</svg>
